<svg width="100" height="175" viewBox="0 0 100 175" fill="none" xmlns="http://www.w3.org/2000/svg">
<path opacity="0.7" d="M100 14.5611C100 22.4558 77.6105 28.8682 50 28.8682C22.3895 28.8682 0 22.4719 0 14.5611C0 6.66634 22.3895 0.253906 50 0.253906C77.6105 0.253906 100 6.65023 100 14.5611Z" fill="#EA5455"/>
<path d="M50 28.8521C22.3895 28.8521 0 22.4557 0 14.5449V160.017C0 167.912 22.3895 174.324 50 174.324C77.6105 174.324 100 167.912 100 160.017V14.561C100 22.4557 77.6105 28.8521 50 28.8521Z" fill="#EA5455"/>
<path d="M31.5706 99.912L36.7066 94.968C38.9866 92.784 39.4666 91.32 39.4666 89.688C39.4666 86.808 37.2106 85.008 33.7066 85.008C31.0906 85.008 28.8586 85.944 27.5626 87.552L29.1946 88.968C30.2266 87.72 31.6906 87.144 33.4906 87.144C35.8426 87.144 37.0666 88.2 37.0666 89.928C37.0666 90.984 36.7306 92.04 34.9546 93.768L28.1146 100.368V102H40.1866V99.912H31.5706ZM49.9838 89.16C47.9678 89.16 46.3358 89.904 45.3998 91.2V89.28H43.1918V102H45.4958V95.448C45.4958 92.688 47.0798 91.224 49.5278 91.224C51.7118 91.224 52.9598 92.448 52.9598 94.944V102H55.2638V94.68C55.2638 90.936 53.0798 89.16 49.9838 89.16ZM69.2941 84.192V91.2C68.2381 89.832 66.6541 89.16 64.8541 89.16C61.1341 89.16 58.4221 91.752 58.4221 95.64C58.4221 99.528 61.1341 102.144 64.8541 102.144C66.7261 102.144 68.3581 101.424 69.3901 99.984V102H71.5981V84.192H69.2941ZM65.0461 100.128C62.5981 100.128 60.7501 98.352 60.7501 95.64C60.7501 92.928 62.5981 91.176 65.0461 91.176C67.4701 91.176 69.3181 92.928 69.3181 95.64C69.3181 98.352 67.4701 100.128 65.0461 100.128Z" fill="white"/>
</svg>
