<svg width="24" height="24" viewBox="0 0 24 24" fill="none" xmlns="http://www.w3.org/2000/svg">
<path d="M20.2295 7.24055L11.9995 12.0005L3.76953 7.24055C3.93848 6.94804 4.17945 6.70363 4.46953 6.53055L10.9995 2.76055C11.6195 2.41055 12.3795 2.41055 12.9995 2.76055L19.5295 6.53055C19.8195 6.70355 20.0605 6.94855 20.2295 7.24055Z" fill="#FDA29B"/>
<path d="M12 12.0002V21.5002C11.6847 21.4998 11.3736 21.428 11.09 21.2902L4.5 17.4802C4.19647 17.3046 3.94435 17.0524 3.76886 16.7488C3.59337 16.4452 3.50066 16.1009 3.5 15.7502V8.25023C3.50165 7.89595 3.59465 7.54808 3.77 7.24023L12 12.0002Z" fill="#F97066"/>
<path d="M20.5 8.25023V15.7502C20.4993 16.1009 20.4066 16.4452 20.2311 16.7488C20.0556 17.0524 19.8035 17.3046 19.5 17.4802L12.88 21.3002C12.605 21.4302 12.304 21.4982 12 21.5002V12.0002L20.23 7.24023C20.405 7.54823 20.498 7.89623 20.5 8.25023Z" fill="#B42318"/>
</svg>
