<svg width="24" height="24" viewBox="0 0 24 24" fill="none" xmlns="http://www.w3.org/2000/svg">
<path d="M12 13C12.5523 13 13 12.5523 13 12C13 11.4477 12.5523 11 12 11C11.4477 11 11 11.4477 11 12C11 12.5523 11.4477 13 12 13Z" fill="#175CD3"/>
<path d="M11.9995 2C10.1067 1.99972 8.25259 2.53668 6.65282 3.54846C5.05305 4.56025 3.77331 6.0053 2.96233 7.71564C2.15136 9.42599 1.84247 11.3314 2.07157 13.2103C2.30067 15.0893 3.05835 16.8646 4.25653 18.33L2.29253 20.293C2.15273 20.4329 2.05752 20.611 2.01895 20.805C1.98038 20.9989 2.00019 21.2 2.07586 21.3827C2.15153 21.5654 2.27967 21.7215 2.44408 21.8314C2.60849 21.9413 2.80178 22 2.99953 22H11.9995C14.6517 22 17.1952 20.9464 19.0706 19.0711C20.946 17.1957 21.9995 14.6522 21.9995 12C21.9995 9.34784 20.946 6.8043 19.0706 4.92893C17.1952 3.05357 14.6517 2 11.9995 2ZM7.99954 13C7.80175 13 7.60841 12.9414 7.44396 12.8315C7.27952 12.7216 7.15134 12.5654 7.07566 12.3827C6.99997 12.2 6.98016 11.9989 7.01875 11.8049C7.05733 11.6109 7.15258 11.4327 7.29243 11.2929C7.43228 11.153 7.61046 11.0578 7.80444 11.0192C7.99843 10.9806 8.19949 11.0004 8.38222 11.0761C8.56494 11.1518 8.72112 11.28 8.831 11.4444C8.94089 11.6089 8.99954 11.8022 8.99954 12C8.99954 12.2652 8.89418 12.5196 8.70664 12.7071C8.51911 12.8946 8.26475 13 7.99954 13ZM11.9995 13C11.8018 13 11.6084 12.9414 11.444 12.8315C11.2795 12.7216 11.1513 12.5654 11.0757 12.3827C11 12.2 10.9802 11.9989 11.0187 11.8049C11.0573 11.6109 11.1526 11.4327 11.2924 11.2929C11.4323 11.153 11.6105 11.0578 11.8044 11.0192C11.9984 10.9806 12.1995 11.0004 12.3822 11.0761C12.5649 11.1518 12.7211 11.28 12.831 11.4444C12.9409 11.6089 12.9995 11.8022 12.9995 12C12.9995 12.2652 12.8942 12.5196 12.7066 12.7071C12.5191 12.8946 12.2648 13 11.9995 13ZM15.9995 13C15.8018 13 15.6084 12.9414 15.444 12.8315C15.2795 12.7216 15.1513 12.5654 15.0757 12.3827C15 12.2 14.9802 11.9989 15.0187 11.8049C15.0573 11.6109 15.1526 11.4327 15.2924 11.2929C15.4323 11.153 15.6105 11.0578 15.8044 11.0192C15.9984 10.9806 16.1995 11.0004 16.3822 11.0761C16.5649 11.1518 16.7211 11.28 16.831 11.4444C16.9409 11.6089 16.9995 11.8022 16.9995 12C16.9995 12.2652 16.8942 12.5196 16.7066 12.7071C16.5191 12.8946 16.2648 13 15.9995 13Z" fill="#53B1FD"/>
<path d="M8 13C8.55228 13 9 12.5523 9 12C9 11.4477 8.55228 11 8 11C7.44772 11 7 11.4477 7 12C7 12.5523 7.44772 13 8 13Z" fill="#175CD3"/>
<path d="M16 13C16.5523 13 17 12.5523 17 12C17 11.4477 16.5523 11 16 11C15.4477 11 15 11.4477 15 12C15 12.5523 15.4477 13 16 13Z" fill="#175CD3"/>
</svg>
