<svg width="32" height="32" viewBox="0 0 32 32" fill="none" xmlns="http://www.w3.org/2000/svg">
<path d="M8 3.5H3.5C3.23478 3.5 2.98043 3.60536 2.79289 3.79289C2.60536 3.98043 2.5 4.23478 2.5 4.5C2.49993 6.9756 3.2788 9.38847 4.72628 11.3968C6.17375 13.4051 8.21645 14.9071 10.565 15.69L11.5 16M24 3.5H28.5C28.7652 3.5 29.0196 3.60536 29.2071 3.79289C29.3946 3.98043 29.5 4.23478 29.5 4.5C29.5001 6.9756 28.7212 9.38847 27.2737 11.3968C25.8262 13.4051 23.7836 14.9071 21.435 15.69L20.5 16" stroke="#FDB022" stroke-width="2" stroke-linecap="round" stroke-linejoin="round"/>
<path d="M19.5 24H12.5L13.5 18H18.5L19.5 24ZM23 31V25C23 24.7348 22.8946 24.4804 22.7071 24.2929C22.5196 24.1054 22.2652 24 22 24H10C9.73478 24 9.48043 24.1054 9.29289 24.2929C9.10536 24.4804 9 24.7348 9 25V31H8.5C8.36739 31 8.24021 31.0527 8.14645 31.1464C8.05268 31.2402 8 31.3674 8 31.5C8 31.6326 8.05268 31.7598 8.14645 31.8536C8.24021 31.9473 8.36739 32 8.5 32H23.5C23.6326 32 23.7598 31.9473 23.8536 31.8536C23.9473 31.7598 24 31.6326 24 31.5C24 31.3674 23.9473 31.2402 23.8536 31.1464C23.7598 31.0527 23.6326 31 23.5 31H23Z" fill="#DC6803"/>
<path d="M25 0H7C6.72386 0 6.5 0.223858 6.5 0.5V1.5C6.5 1.77614 6.72386 2 7 2H25C25.2761 2 25.5 1.77614 25.5 1.5V0.5C25.5 0.223858 25.2761 0 25 0Z" fill="#B54708"/>
<path d="M16 19.5C13.8783 19.5 11.8434 18.6571 10.3431 17.1569C8.84285 15.6566 8 13.6217 8 11.5V2H24V11.5C24 13.6217 23.1571 15.6566 21.6569 17.1569C20.1566 18.6571 18.1217 19.5 16 19.5Z" fill="#FDB022"/>
<path d="M16 14C18.7614 14 21 11.7614 21 9C21 6.23858 18.7614 4 16 4C13.2386 4 11 6.23858 11 9C11 11.7614 13.2386 14 16 14Z" fill="#F2F4F7"/>
<path d="M13.6008 9.99997H12.1258C11.9607 9.34353 11.9607 8.65642 12.1258 7.99997H13.6008C13.4661 8.65983 13.4661 9.34011 13.6008 9.99997ZM13.8808 11C14.1557 11.7174 14.582 12.3672 15.1308 12.905C14.5901 12.7856 14.0803 12.5545 13.6343 12.2264C13.1883 11.8983 12.8158 11.4806 12.5408 11H13.8808ZM13.8808 6.99997H12.5408C12.8158 6.51938 13.1883 6.10162 13.6343 5.77355C14.0803 5.44547 14.5901 5.21433 15.1308 5.09497C14.582 5.63275 14.1557 6.28251 13.8808 6.99997ZM17.0358 11C16.7793 11.5085 16.428 11.9633 16.0008 12.34C15.5736 11.9633 15.2223 11.5085 14.9658 11H17.0358ZM14.9658 6.99997C15.2223 6.49145 15.5736 6.03662 16.0008 5.65997C16.428 6.03662 16.7793 6.49145 17.0358 6.99997H14.9658ZM14.6158 7.99997H17.3858C17.5382 8.65792 17.5382 9.34202 17.3858 9.99997H14.6158C14.4633 9.34202 14.4633 8.65792 14.6158 7.99997ZM18.1208 11H19.4608C19.1854 11.4822 18.8116 11.9011 18.3636 12.2294C17.9157 12.5576 17.4036 12.7878 16.8608 12.905C17.4135 12.3685 17.8434 11.7186 18.1208 11ZM18.1208 6.99997C17.8434 6.28139 17.4135 5.63147 16.8608 5.09497C17.4036 5.21217 17.9157 5.44237 18.3636 5.77059C18.8116 6.09881 19.1854 6.5177 19.4608 6.99997H18.1208ZM19.8758 9.99997H18.3758C18.5105 9.34011 18.5105 8.65983 18.3758 7.99997H19.8758C20.0409 8.65642 20.0409 9.34353 19.8758 9.99997Z" fill="#FDB022"/>
<path d="M10 25H22V31H10V25Z" fill="#F2F4F7"/>
<path d="M12 26.5H20V27.5H12V26.5ZM13 28.5H19V29.5H13V28.5Z" fill="#EAECF0"/>
</svg>
