<svg width="32" height="32" viewBox="0 0 32 32" fill="none" xmlns="http://www.w3.org/2000/svg">
<g id="download (1)">
<g id="Portable Book">
<path id="Vector" d="M26.5 0H5.5C4.67157 0 4 0.671573 4 1.5V30.5C4 31.3284 4.67157 32 5.5 32H26.5C27.3284 32 28 31.3284 28 30.5V1.5C28 0.671573 27.3284 0 26.5 0Z" fill="#175CD3"/>
<path id="Vector_2" d="M27 1.5V30.5C27 30.6326 26.9473 30.7598 26.8536 30.8536C26.7598 30.9473 26.6326 31 26.5 31H5.5C5.36739 31 5.24021 30.9473 5.14645 30.8536C5.05268 30.7598 5 30.6326 5 30.5V1.5C5 1.36739 5.05268 1.24021 5.14645 1.14645C5.24021 1.05268 5.36739 1 5.5 1H12C12 1.26522 12.1054 1.51957 12.2929 1.70711C12.4804 1.89464 12.7348 2 13 2C19.33 2 19.3 2.12 19.705 1.705C19.8928 1.51832 19.9989 1.26479 20 1H26.5C26.6326 1 26.7598 1.05268 26.8536 1.14645C26.9473 1.24021 27 1.36739 27 1.5Z" fill="white"/>
<path id="Vector_3" d="M15 4H25V5H15V4ZM15 6H25V7H15V6ZM15 8H25V9H15V8ZM15 10H25V11H15V10ZM15 12H25V13H15V12ZM7 14H25V15H7V14ZM7 16H25V17H7V16ZM7 18H25V19H7V18ZM7 20H25V21H7V20ZM7 22H25V23H7V22ZM7 24H25V25H7V24ZM7 26H25V27H7V26ZM7 28H21V29H7V28ZM7 4H14V13H7V4Z" fill="#D0D5DD"/>
<path id="Vector_4" d="M26 10V15.3333L19.5 18L13 15.3333V10H26Z" fill="#1570EF"/>
<path id="Vector_5" d="M31 9.5L19.5 14L8 9.5L19.5 5L31 9.5Z" fill="#2E90FA"/>
<path id="Vector_6" d="M8 29C12.4183 29 16 26.9853 16 24.5C16 22.0147 12.4183 20 8 20C3.58172 20 0 22.0147 0 24.5C0 26.9853 3.58172 29 8 29Z" fill="#53B1FD"/>
<path id="Vector_7" d="M8.00315 27C7.57117 27.0006 7.14415 26.9233 6.75131 26.7735C6.35848 26.6237 6.00909 26.4049 5.72709 26.1321C5.44508 25.8592 5.23711 25.5388 5.11741 25.1928C4.99771 24.8467 4.96911 24.4831 5.03356 24.127C5.09802 23.7708 5.254 23.4305 5.49084 23.1293C5.72769 22.8281 6.03979 22.5731 6.40579 22.3818C6.7718 22.1905 7.18305 22.0674 7.61141 22.0209C8.03978 21.9744 8.47512 22.0057 8.88766 22.1125C8.76455 22.3434 8.72826 22.6 8.78357 22.8484C8.83888 23.0969 8.98319 23.3255 9.19748 23.5042C9.41178 23.6828 9.68598 23.8032 9.98395 23.8493C10.2819 23.8954 10.5896 23.8651 10.8666 23.7625C11.005 24.1364 11.0363 24.5322 10.9578 24.918C10.8793 25.3038 10.6933 25.6689 10.4148 25.9838C10.1362 26.2987 9.77291 26.5547 9.35404 26.7312C8.93518 26.9077 8.47247 26.9998 8.00315 27Z" fill="#FCFCFD"/>
</g>
</g>
</svg>
