<svg width="24" height="24" viewBox="0 0 24 24" fill="none" xmlns="http://www.w3.org/2000/svg">
<path d="M23 21V3C23 2.73478 22.8946 2.48043 22.7071 2.29289C22.5196 2.10536 22.2652 2 22 2H17V22H22C22.2652 22 22.5196 21.8946 22.7071 21.7071C22.8946 21.5196 23 21.2652 23 21Z" fill="#53B1FD"/>
<path d="M1 3V21C1 21.2652 1.10536 21.5196 1.29289 21.7071C1.48043 21.8946 1.73478 22 2 22H7V2H2C1.73478 2 1.48043 2.10536 1.29289 2.29289C1.10536 2.48043 1 2.73478 1 3Z" fill="#175CD3"/>
<path d="M9 2H15V22H9V2Z" fill="#53B1FD"/>
<path d="M7 2H9V22H7V2ZM15 2H17V22H15V2Z" fill="#B2DDFF"/>
</svg>
