<svg width="24" height="24" viewBox="0 0 24 24" fill="none" xmlns="http://www.w3.org/2000/svg">
<path d="M13.5 9C13.1022 9 12.7206 8.84196 12.4393 8.56066C12.158 8.27936 12 7.89782 12 7.5C12 7.10218 12.158 6.72064 12.4393 6.43934C12.7206 6.15804 13.1022 6 13.5 6C13.8978 6 14.2794 6.15804 14.5607 6.43934C14.842 6.72064 15 7.10218 15 7.5C15 7.89782 14.842 8.27936 14.5607 8.56066C14.2794 8.84196 13.8978 9 13.5 9Z" fill="#B2DDFF"/>
<path d="M19 2H5C4.20508 2.00237 3.4434 2.31921 2.8813 2.8813C2.31921 3.4434 2.00237 4.20508 2 5V13.86L5.88 9.98C6.4517 9.43586 7.21074 9.13238 8 9.13238C8.78926 9.13238 9.5483 9.43586 10.12 9.98L12.991 12.867L13.879 11.979C14.4426 11.4185 15.2052 11.1039 16 11.1039C16.7948 11.1039 17.5574 11.4185 18.121 11.979L22 15.86V5C21.9976 4.20508 21.6808 3.4434 21.1187 2.8813C20.5566 2.31921 19.7949 2.00237 19 2ZM13.5 9C13.1022 9 12.7206 8.84196 12.4393 8.56066C12.158 8.27936 12 7.89782 12 7.5C12 7.10218 12.158 6.72064 12.4393 6.43934C12.7206 6.15804 13.1022 6 13.5 6C13.8978 6 14.2794 6.15804 14.5607 6.43934C14.842 6.72064 15 7.10218 15 7.5C15 7.89782 14.842 8.27936 14.5607 8.56066C14.2794 8.84196 13.8978 9 13.5 9Z" fill="#53B1FD"/>
<path d="M10.12 9.98043C9.5483 9.43629 8.78926 9.13281 8 9.13281C7.21074 9.13281 6.4517 9.43629 5.88 9.98043L2 13.8604V19.0004C2.00237 19.7954 2.31921 20.557 2.8813 21.1191C3.4434 21.6812 4.20508 21.9981 5 22.0004H19C19.815 22.0004 20.595 21.6674 21.16 21.0804L10.12 9.98043Z" fill="#175CD3"/>
<path d="M21.9992 15.8576L18.1202 11.9786C17.5566 11.4181 16.7941 11.1035 15.9992 11.1035C15.2044 11.1035 14.4419 11.4181 13.8782 11.9786L12.9902 12.8666L21.1552 21.0756C21.6972 20.5206 22.0002 19.7756 21.9992 18.9996V15.8576Z" fill="#B2DDFF"/>
</svg>
