<svg width="24" height="24" viewBox="0 0 24 24" fill="none" xmlns="http://www.w3.org/2000/svg">
<path d="M12.0002 14.1948C11.8247 14.1948 11.6522 14.1486 11.5002 14.061L2.50017 8.86377C2.02178 8.58745 1.85796 7.97563 2.13428 7.49724C2.22204 7.3453 2.34823 7.21911 2.50017 7.13135L11.5002 1.93799C11.8098 1.76025 12.1905 1.76025 12.5002 1.93799L21.5002 7.13135C21.9786 7.40767 22.1424 8.01949 21.8661 8.49788C21.7783 8.64982 21.6521 8.77601 21.5002 8.86377L12.5002 14.061C12.3481 14.1486 12.1757 14.1948 12.0002 14.1948Z" fill="#84CAFF"/>
<path d="M21.5002 11.1314L19.5361 9.99805L12.5002 14.0611C12.1907 14.2395 11.8096 14.2395 11.5002 14.0611L4.46428 9.99805L2.50017 11.1314C2.02178 11.4077 1.85796 12.0196 2.13428 12.4979C2.22204 12.6499 2.34823 12.7761 2.50017 12.8638L11.5002 18.0611C11.8096 18.2395 12.1907 18.2395 12.5002 18.0611L21.5002 12.8638C21.9786 12.5875 22.1424 11.9757 21.8661 11.4973C21.7783 11.3454 21.6521 11.2192 21.5002 11.1314Z" fill="#53B1FD"/>
<path d="M21.5002 15.1314L19.5361 13.998L12.5002 18.0611C12.1907 18.2395 11.8096 18.2395 11.5002 18.0611L4.46428 13.998L2.50017 15.1314C2.02178 15.4077 1.85796 16.0196 2.13428 16.4979C2.22204 16.6499 2.34823 16.7761 2.50017 16.8638L11.5002 22.0611C11.8096 22.2395 12.1907 22.2395 12.5002 22.0611L21.5002 16.8638C21.9786 16.5875 22.1424 15.9757 21.8661 15.4973C21.7783 15.3454 21.6521 15.2192 21.5002 15.1314Z" fill="#175CD3"/>
</svg>
