<svg width="24" height="24" viewBox="0 0 24 24" fill="none" xmlns="http://www.w3.org/2000/svg">
<path d="M7.59426 8.86006C7.6239 8.74891 7.67522 8.64473 7.74526 8.55348C7.8153 8.46224 7.90268 8.38574 8.00239 8.32837L13.3656 5.2319C13.5666 5.11827 13.8043 5.08862 14.0271 5.14938C14.2498 5.21015 14.4396 5.35642 14.555 5.55637C14.6704 5.75632 14.7023 5.99376 14.6435 6.21705C14.5848 6.44033 14.4402 6.63138 14.2413 6.74862L8.87807 9.8451C8.72807 9.93167 8.55576 9.97183 8.38294 9.96049C8.21012 9.94915 8.04454 9.88683 7.90714 9.7814C7.76973 9.67597 7.66667 9.53217 7.61098 9.36818C7.55528 9.20418 7.54947 9.02736 7.59426 8.86006Z" fill="#53B1FD"/>
<path d="M14.6499 16.7351C14.6202 16.6239 14.5689 16.5197 14.4989 16.4285C14.4288 16.3372 14.3415 16.2607 14.2418 16.2034L8.8785 13.1069C8.67752 12.9933 8.43979 12.9636 8.21705 13.0244C7.99431 13.0851 7.80458 13.2314 7.68914 13.4314C7.5737 13.6313 7.54189 13.8688 7.60063 14.092C7.65938 14.3153 7.80393 14.5064 8.00282 14.6236L13.3661 17.7201C13.5161 17.8067 13.6884 17.8468 13.8612 17.8355C14.034 17.8242 14.1996 17.7618 14.337 17.6564C14.4744 17.551 14.5775 17.4072 14.6332 17.2432C14.6889 17.0792 14.6947 16.9024 14.6499 16.7351Z" fill="#53B1FD"/>
<circle cx="6.5" cy="11.5" r="3.5" fill="#175CD3"/>
<circle cx="16.5" cy="4.5" r="3.5" fill="#175CD3"/>
<circle cx="16.5" cy="18.5" r="3.5" fill="#175CD3"/>
</svg>
