<svg width="24" height="24" viewBox="0 0 24 24" fill="none" xmlns="http://www.w3.org/2000/svg">
<path d="M11 10H16C16.2652 10 16.5196 10.1054 16.7071 10.2929C16.8946 10.4804 17 10.7348 17 11V16C17 16.2652 16.8946 16.5196 16.7071 16.7071C16.5196 16.8946 16.2652 17 16 17H11C10.7348 17 10.4804 16.8946 10.2929 16.7071C10.1054 16.5196 10 16.2652 10 16V11C10 10.7348 10.1054 10.4804 10.2929 10.2929C10.4804 10.1054 10.7348 10 11 10Z" fill="#53B1FD"/>
<path d="M10 11C10 10.7348 10.1054 10.4804 10.2929 10.2929C10.4804 10.1054 10.7348 10 11 10H14V8C14 7.73478 13.8946 7.48043 13.7071 7.29289C13.5196 7.10536 13.2652 7 13 7H8C7.73478 7 7.48043 7.10536 7.29289 7.29289C7.10536 7.48043 7 7.73478 7 8V13C7 13.2652 7.10536 13.5196 7.29289 13.7071C7.48043 13.8946 7.73478 14 8 14H10V11ZM4 22C3.46957 22 2.96086 21.7893 2.58579 21.4142C2.21071 21.0391 2 20.5304 2 20C2 19.4696 2.21071 18.9609 2.58579 18.5858C2.96086 18.2107 3.46957 18 4 18C4.53043 18 5.03914 18.2107 5.41421 18.5858C5.78929 18.9609 6 19.4696 6 20C6 20.5304 5.78929 21.0391 5.41421 21.4142C5.03914 21.7893 4.53043 22 4 22ZM4 6C3.46957 6 2.96086 5.78929 2.58579 5.41421C2.21071 5.03914 2 4.53043 2 4C2 3.46957 2.21071 2.96086 2.58579 2.58579C2.96086 2.21071 3.46957 2 4 2C4.53043 2 5.03914 2.21071 5.41421 2.58579C5.78929 2.96086 6 3.46957 6 4C6 4.53043 5.78929 5.03914 5.41421 5.41421C5.03914 5.78929 4.53043 6 4 6ZM20 6C19.4696 6 18.9609 5.78929 18.5858 5.41421C18.2107 5.03914 18 4.53043 18 4C18 3.46957 18.2107 2.96086 18.5858 2.58579C18.9609 2.21071 19.4696 2 20 2C20.5304 2 21.0391 2.21071 21.4142 2.58579C21.7893 2.96086 22 3.46957 22 4C22 4.53043 21.7893 5.03914 21.4142 5.41421C21.0391 5.78929 20.5304 6 20 6ZM20 22C19.4696 22 18.9609 21.7893 18.5858 21.4142C18.2107 21.0391 18 20.5304 18 20C18 19.4696 18.2107 18.9609 18.5858 18.5858C18.9609 18.2107 19.4696 18 20 18C20.5304 18 21.0391 18.2107 21.4142 18.5858C21.7893 18.9609 22 19.4696 22 20C22 20.5304 21.7893 21.0391 21.4142 21.4142C21.0391 21.7893 20.5304 22 20 22Z" fill="#175CD3"/>
<path d="M18.278 5C18.096 4.69821 17.9997 4.35245 17.9997 4C17.9997 3.64755 18.096 3.30179 18.278 3H5.722C5.90405 3.30179 6.00026 3.64755 6.00026 4C6.00026 4.35245 5.90405 4.69821 5.722 5H18.278ZM20 18C20.352 18.002 20.697 18.098 21 18.278V5.722C20.6982 5.90405 20.3524 6.00026 20 6.00026C19.6476 6.00026 19.3018 5.90405 19 5.722V18.278C19.303 18.098 19.648 18.002 20 18ZM4 18C4.352 18.002 4.697 18.098 5 18.278V5.722C4.69821 5.90405 4.35245 6.00026 4 6.00026C3.64755 6.00026 3.30179 5.90405 3 5.722V18.278C3.303 18.098 3.648 18.002 4 18ZM18.278 19H5.722C5.90405 19.3018 6.00026 19.6476 6.00026 20C6.00026 20.3524 5.90405 20.6982 5.722 21H18.278C18.096 20.6982 17.9997 20.3524 17.9997 20C17.9997 19.6476 18.096 19.3018 18.278 19Z" fill="#53B1FD"/>
</svg>
