<svg width="24" height="24" viewBox="0 0 24 24" fill="none" xmlns="http://www.w3.org/2000/svg">
<path d="M19 6H5C4.20435 6 3.44129 6.31607 2.87868 6.87868C2.31607 7.44129 2 8.20435 2 9V11.72L8.837 14H15.163L22 11.72V9C22 8.20435 21.6839 7.44129 21.1213 6.87868C20.5587 6.31607 19.7956 6 19 6Z" fill="#FDB022"/>
<path d="M10 6V5H14V6H16V5C15.9995 4.46973 15.7886 3.96133 15.4136 3.58637C15.0387 3.21141 14.5303 3.00053 14 3H10C9.46973 3.00053 8.96133 3.21141 8.58637 3.58637C8.21141 3.96133 8.00053 4.46973 8 5V6H10ZM8.837 14L2 11.72V18C2.00079 18.7954 2.31712 19.558 2.87956 20.1204C3.44199 20.6829 4.20459 20.9992 5 21H19C19.7954 20.9992 20.558 20.6829 21.1204 20.1204C21.6829 19.558 21.9992 18.7954 22 18V11.72L15.163 14H8.837Z" fill="#B54708"/>
<path d="M10 5V6H8V5C8.00053 4.46973 8.21141 3.96133 8.58637 3.58637C8.96133 3.21141 9.46973 3.00053 10 3H14C14.5303 3.00053 15.0387 3.21141 15.4136 3.58637C15.7886 3.96133 15.9995 4.46973 16 5V6H14V5H10Z" fill="#B54708"/>
</svg>
