<svg width="32" height="32" viewBox="0 0 32 32" fill="none" xmlns="http://www.w3.org/2000/svg">
<g clip-path="url(#clip0_7514_198837)">
<path d="M31 9.5V29H1V9.5C1 9.10218 1.15804 8.72064 1.43934 8.43934C1.72064 8.15804 2.10218 8 2.5 8H29.5C29.8978 8 30.2794 8.15804 30.5607 8.43934C30.842 8.72064 31 9.10218 31 9.5Z" fill="#8098F9"/>
<path d="M0.5 29H31.5C31.6326 29 31.7598 29.0527 31.8536 29.1464C31.9473 29.2402 32 29.3674 32 29.5V30.5C32 30.8978 31.842 31.2794 31.5607 31.5607C31.2794 31.842 30.8978 32 30.5 32H1.5C1.10218 32 0.720644 31.842 0.43934 31.5607C0.158035 31.2794 0 30.8978 0 30.5L0 29.5C0 29.3674 0.0526784 29.2402 0.146447 29.1464C0.240215 29.0527 0.367392 29 0.5 29Z" fill="#2D31A6"/>
<path d="M30 9.5V28H2V9.5C2 9.36739 2.05268 9.24021 2.14645 9.14645C2.24021 9.05268 2.36739 9 2.5 9H29.5C29.6326 9 29.7598 9.05268 29.8536 9.14645C29.9473 9.24021 30 9.36739 30 9.5Z" fill="white"/>
<path d="M19.5009 30H12.5009C12.2356 30 11.9813 29.8946 11.7938 29.7071C11.6062 29.5196 11.5009 29.2652 11.5009 29C11.5009 28.95 11.0809 29 20.5009 29C20.5009 29.2652 20.3955 29.5196 20.208 29.7071C20.0204 29.8946 19.7661 30 19.5009 30Z" fill="#F2F4F7"/>
<path d="M3 10H16V18H3V10ZM18 15H29V21H18V15ZM3 19H16V20H3V19ZM3 21H16V22H3V21ZM3 23H16V24H3V23ZM18 22H29V23H18V22ZM18 24H29V25H18V24ZM18 26H29V27H18V26ZM3 25H14V26H3V25Z" fill="#D0D5DD"/>
<path d="M22.5 0H17.5C17.2239 0 17 0.223858 17 0.5V21.5C17 21.7761 17.2239 22 17.5 22H22.5C22.7761 22 23 21.7761 23 21.5V0.5C23 0.223858 22.7761 0 22.5 0Z" fill="#444CE7"/>
<path d="M11 20H14V1.5C14 1.10218 13.842 0.720644 13.5607 0.43934C13.2794 0.158035 12.8978 0 12.5 0C12.1022 0 11.7206 0.158035 11.4393 0.43934C11.158 0.720644 11 1.10218 11 1.5V20Z" fill="#444CE7"/>
<path d="M9 5V10C9 10.2652 9.10536 10.5196 9.29289 10.7071C9.48043 10.8946 9.73478 11 10 11V5C10 4.73478 10.1054 4.48043 10.2929 4.29289C10.4804 4.10536 10.7348 4 11 4H14C14.1326 4 14.2598 3.94732 14.3536 3.85355C14.4473 3.75979 14.5 3.63261 14.5 3.5C14.5 3.36739 14.4473 3.24021 14.3536 3.14645C14.2598 3.05268 14.1326 3 14 3H11C10.4696 3 9.96086 3.21071 9.58579 3.58579C9.21071 3.96086 9 4.46957 9 5Z" fill="#98A2B3"/>
<path d="M18.5 2.5H17V1.5H18.5C18.6326 1.5 18.7598 1.55268 18.8536 1.64645C18.9473 1.74021 19 1.86739 19 2C19 2.13261 18.9473 2.25979 18.8536 2.35355C18.7598 2.44732 18.6326 2.5 18.5 2.5ZM19.5 4.5H17V3.5H19.5C19.6326 3.5 19.7598 3.55268 19.8536 3.64645C19.9473 3.74021 20 3.86739 20 4C20 4.13261 19.9473 4.25979 19.8536 4.35355C19.7598 4.44732 19.6326 4.5 19.5 4.5ZM18.5 6.5H17V5.5H18.5C18.6326 5.5 18.7598 5.55268 18.8536 5.64645C18.9473 5.74021 19 5.86739 19 6C19 6.13261 18.9473 6.25979 18.8536 6.35355C18.7598 6.44732 18.6326 6.5 18.5 6.5ZM19.5 8.5H17V7.5H19.5C19.6326 7.5 19.7598 7.55268 19.8536 7.64645C19.9473 7.74021 20 7.86739 20 8C20 8.13261 19.9473 8.25979 19.8536 8.35355C19.7598 8.44732 19.6326 8.5 19.5 8.5ZM18.5 10.5H17V9.5H18.5C18.6326 9.5 18.7598 9.55268 18.8536 9.64645C18.9473 9.74021 19 9.86739 19 10C19 10.1326 18.9473 10.2598 18.8536 10.3536C18.7598 10.4473 18.6326 10.5 18.5 10.5ZM19.5 12.5H17V11.5H19.5C19.6326 11.5 19.7598 11.5527 19.8536 11.6464C19.9473 11.7402 20 11.8674 20 12C20 12.1326 19.9473 12.2598 19.8536 12.3536C19.7598 12.4473 19.6326 12.5 19.5 12.5ZM18.5 14.5H17V13.5H18.5C18.6326 13.5 18.7598 13.5527 18.8536 13.6464C18.9473 13.7402 19 13.8674 19 14C19 14.1326 18.9473 14.2598 18.8536 14.3536C18.7598 14.4473 18.6326 14.5 18.5 14.5ZM19.5 16.5H17V15.5H19.5C19.6326 15.5 19.7598 15.5527 19.8536 15.6464C19.9473 15.7402 20 15.8674 20 16C20 16.1326 19.9473 16.2598 19.8536 16.3536C19.7598 16.4473 19.6326 16.5 19.5 16.5ZM18.5 18.5H17V17.5H18.5C18.6326 17.5 18.7598 17.5527 18.8536 17.6464C18.9473 17.7402 19 17.8674 19 18C19 18.1326 18.9473 18.2598 18.8536 18.3536C18.7598 18.4473 18.6326 18.5 18.5 18.5ZM19.5 20.5H17V19.5H19.5C19.6326 19.5 19.7598 19.5527 19.8536 19.6464C19.9473 19.7402 20 19.8674 20 20C20 20.1326 19.9473 20.2598 19.8536 20.3536C19.7598 20.4473 19.6326 20.5 19.5 20.5Z" fill="#F2F4F7"/>
<path d="M14 20L12.945 22.105C12.903 22.1869 12.8393 22.2556 12.7608 22.3036C12.6823 22.3516 12.592 22.377 12.5 22.377C12.408 22.377 12.3177 22.3516 12.2392 22.3036C12.1607 22.2556 12.097 22.1869 12.055 22.105L11 20" fill="#8098F9"/>
</g>
<defs>
<clipPath id="clip0_7514_198837">
<rect width="32" height="32" fill="white"/>
</clipPath>
</defs>
</svg>
