<svg width="24" height="24" viewBox="0 0 24 24" fill="none" xmlns="http://www.w3.org/2000/svg">
<path d="M13.9998 16.0003C13.802 16.0003 13.6087 15.9416 13.4443 15.8317C13.2799 15.7218 13.1518 15.5657 13.0761 15.383C13.0004 15.2003 12.9806 14.9992 13.0192 14.8053C13.0578 14.6113 13.153 14.4332 13.2928 14.2933L20.2928 7.29332C20.4809 7.10861 20.7343 7.00565 20.9979 7.00685C21.2615 7.00804 21.514 7.11329 21.7004 7.2997C21.8868 7.4861 21.9921 7.73858 21.9933 8.0022C21.9945 8.26581 21.8915 8.51923 21.7068 8.70732L14.7068 15.7073C14.6141 15.8003 14.5039 15.8741 14.3825 15.9244C14.2612 15.9747 14.1311 16.0005 13.9998 16.0003ZM2.99979 17.0003C2.80204 17.0003 2.60874 16.9416 2.44433 16.8317C2.27992 16.7218 2.15178 16.5657 2.07611 16.383C2.00044 16.2003 1.98064 15.9992 2.0192 15.8053C2.05777 15.6113 2.15298 15.4332 2.29279 15.2933L8.29279 9.29332C8.48087 9.10861 8.73429 9.00565 8.99791 9.00685C9.26153 9.00804 9.51401 9.11329 9.70041 9.2997C9.88682 9.4861 9.99207 9.73858 9.99326 10.0022C9.99446 10.2658 9.8915 10.5192 9.70679 10.7073L3.70679 16.7073C3.61406 16.8003 3.50386 16.8741 3.38253 16.9244C3.2612 16.9747 3.13112 17.0005 2.99979 17.0003Z" fill="#175CD3"/>
<path d="M14.0013 16.0003C13.87 16.0005 13.7399 15.9747 13.6186 15.9244C13.4972 15.8741 13.387 15.8003 13.2943 15.7073L8.2943 10.7073C8.10959 10.5192 8.00663 10.2658 8.00782 10.0022C8.00902 9.73858 8.11427 9.4861 8.30067 9.2997C8.48708 9.11329 8.73956 9.00804 9.00317 9.00685C9.26679 9.00565 9.52021 9.10861 9.7083 9.29332L14.7083 14.2933C14.8481 14.4332 14.9433 14.6113 14.9819 14.8053C15.0204 14.9992 15.0006 15.2003 14.925 15.383C14.8493 15.5657 14.7212 15.7218 14.5568 15.8317C14.3923 15.9416 14.199 16.0003 14.0013 16.0003Z" fill="#175CD3"/>
</svg>
