<svg width="24" height="24" viewBox="0 0 24 24" fill="none" xmlns="http://www.w3.org/2000/svg">
<path d="M21.207 11.2927L18.207 8.2927C18.1141 8.19986 18.0038 8.12622 17.8824 8.076C17.7611 8.02578 17.631 7.99995 17.4996 8C17.3683 8.00005 17.2382 8.02596 17.1169 8.07627C16.9956 8.12658 16.8853 8.20029 16.7925 8.2932C16.6997 8.38611 16.626 8.4964 16.5758 8.61777C16.5256 8.73914 16.4998 8.86921 16.4998 9.00056C16.4998 9.1319 16.5258 9.26196 16.5761 9.38329C16.6264 9.50462 16.7001 9.61486 16.793 9.7077L18.086 10.9997H12.5C12.2348 10.9997 11.9804 11.1051 11.7929 11.2926C11.6054 11.4801 11.5 11.7345 11.5 11.9997C11.5 12.2649 11.6054 12.5193 11.7929 12.7068C11.9804 12.8943 12.2348 12.9997 12.5 12.9997H18.086L16.793 14.2927C16.6975 14.3849 16.6213 14.4953 16.5689 14.6173C16.5165 14.7393 16.4889 14.8705 16.4877 15.0033C16.4866 15.1361 16.5119 15.2678 16.5622 15.3907C16.6125 15.5136 16.6867 15.6252 16.7806 15.7191C16.8745 15.813 16.9862 15.8872 17.109 15.9375C17.2319 15.9878 17.3636 16.0131 17.4964 16.012C17.6292 16.0108 17.7604 15.9832 17.8824 15.9308C18.0044 15.8784 18.1148 15.8022 18.207 15.7067L21.207 12.7067C21.3 12.6138 21.3737 12.5035 21.4241 12.3821C21.4744 12.2607 21.5003 12.1306 21.5003 11.9992C21.5003 11.8678 21.4744 11.7377 21.4241 11.6163C21.3737 11.4949 21.3 11.3846 21.207 11.2917V11.2927Z" fill="#175CD3"/>
<path d="M12.5 13C12.2348 13 11.9804 12.8946 11.7929 12.7071C11.6054 12.5196 11.5 12.2652 11.5 12C11.5 11.7348 11.6054 11.4804 11.7929 11.2929C11.9804 11.1054 12.2348 11 12.5 11H16.5V5C16.4992 4.20459 16.1829 3.44199 15.6204 2.87956C15.058 2.31712 14.2954 2.00079 13.5 2H5.5C4.70459 2.00079 3.94199 2.31712 3.37956 2.87956C2.81712 3.44199 2.50079 4.20459 2.5 5V19C2.50079 19.7954 2.81712 20.558 3.37956 21.1204C3.94199 21.6829 4.70459 21.9992 5.5 22H13.5C14.2954 21.9992 15.058 21.6829 15.6204 21.1204C16.1829 20.558 16.4992 19.7954 16.5 19V13H12.5Z" fill="#53B1FD"/>
</svg>
