<svg width="24" height="24" viewBox="0 0 24 24" fill="none" xmlns="http://www.w3.org/2000/svg">
<path d="M21.951 9.67004C21.8933 9.49273 21.7871 9.33509 21.6445 9.21493C21.5019 9.09477 21.3285 9.01687 21.144 8.99004L15.445 8.16204L12.897 2.99804C12.8102 2.8375 12.6801 2.70446 12.5216 2.61398C12.3631 2.52349 12.1824 2.47918 12 2.48604V18.766L17.097 21.445C17.2621 21.5319 17.4483 21.5708 17.6344 21.5573C17.8205 21.5439 17.9991 21.4787 18.1501 21.369C18.301 21.2593 18.4183 21.1096 18.4886 20.9368C18.5589 20.764 18.5795 20.5749 18.548 20.391L17.575 14.715L21.698 10.695C21.8316 10.5648 21.9261 10.3998 21.9708 10.2187C22.0155 10.0375 22.0086 9.84749 21.951 9.67004Z" fill="#53B1FD"/>
<path d="M11.1033 2.99793L8.55529 8.16193L2.85629 8.98993C2.67159 9.01675 2.49808 9.09473 2.3554 9.21503C2.21271 9.33534 2.10654 9.49318 2.04889 9.67069C1.99125 9.8482 1.98443 10.0383 2.02921 10.2195C2.07399 10.4007 2.16859 10.5657 2.30229 10.6959L6.42529 14.7149L5.45229 20.3909C5.42091 20.5747 5.44153 20.7636 5.51182 20.9362C5.5821 21.1089 5.69926 21.2585 5.85005 21.3681C6.00085 21.4777 6.17929 21.543 6.36522 21.5566C6.55115 21.5702 6.73717 21.5315 6.90229 21.4449L12.0003 18.7649V2.50293C11.6443 2.50393 11.2973 2.66993 11.1033 2.99793Z" fill="#175CD3"/>
</svg>
