<svg width="24" height="24" viewBox="0 0 24 24" fill="none" xmlns="http://www.w3.org/2000/svg">
<path d="M17.7362 14.6217L15.3102 16.8517C14.0626 17.9393 12.5968 18.7474 11.0112 19.2217L11.6552 22.2257C11.6881 22.379 11.7566 22.5224 11.8552 22.6443C11.9538 22.7663 12.0796 22.8633 12.2226 22.9277C12.3656 22.992 12.5217 23.0218 12.6783 23.0147C12.8349 23.0076 12.9877 22.9637 13.1242 22.8867L17.0292 20.6847C17.5789 20.3508 18.0084 19.8508 18.2555 19.2569C18.5026 18.6631 18.5547 18.0061 18.4042 17.3807L17.7362 14.6217ZM7.26521 8.77571L9.35321 6.29571L6.74921 5.66771C6.11596 5.44677 5.42415 5.46246 4.80157 5.71189C4.17899 5.96133 3.66772 6.42765 3.36221 7.02471L1.16221 10.9247C1.08518 11.0613 1.04134 11.214 1.03423 11.3707C1.02712 11.5273 1.05694 11.6834 1.12127 11.8263C1.1856 11.9693 1.28266 12.0952 1.40459 12.1937C1.52652 12.2923 1.66992 12.3608 1.82321 12.3937L4.89621 13.0527C5.40572 11.4889 6.20986 10.0371 7.26521 8.77571ZM16.7332 8.81571C17.0299 8.81571 17.3199 8.72774 17.5666 8.56292C17.8132 8.3981 18.0055 8.16383 18.119 7.88974C18.2326 7.61565 18.2623 7.31405 18.2044 7.02308C18.1465 6.73211 18.0036 6.46483 17.7939 6.25505C17.5841 6.04527 17.3168 5.90241 17.0258 5.84454C16.7349 5.78666 16.4333 5.81636 16.1592 5.92989C15.8851 6.04343 15.6508 6.23568 15.486 6.48236C15.3212 6.72903 15.2332 7.01904 15.2332 7.31571C15.2332 7.71354 15.3912 8.09507 15.6726 8.37637C15.9539 8.65768 16.3354 8.81571 16.7332 8.81571Z" fill="#175CD3"/>
<path d="M22.5996 2.06189C22.5545 1.89053 22.4648 1.73422 22.3395 1.60894C22.2142 1.48366 22.0579 1.39392 21.8866 1.34889C19.8353 0.815867 17.6753 0.873149 15.6552 1.51413C13.6351 2.15512 11.8372 3.35373 10.4686 4.97189L7.26455 8.77589C5.66424 10.6844 4.64893 13.0144 4.34055 15.4859C4.32059 15.6378 4.33582 15.7923 4.38506 15.9375C4.4343 16.0826 4.51624 16.2145 4.62455 16.3229L7.72455 19.4229C7.81751 19.5159 7.92789 19.5896 8.04938 19.6399C8.17086 19.6902 8.30107 19.716 8.43255 19.7159C8.46055 19.7159 8.48955 19.7149 8.51855 19.7119C11.0283 19.5045 13.4067 18.5027 15.3086 16.8519L18.9726 13.4839C20.5963 12.1186 21.7991 10.3204 22.441 8.29841C23.0829 6.27641 23.1385 4.11372 22.5996 2.06189ZM16.7326 8.81589C16.4359 8.81589 16.1459 8.72791 15.8992 8.56309C15.6525 8.39827 15.4603 8.164 15.3467 7.88991C15.2332 7.61582 15.2035 7.31422 15.2614 7.02325C15.3193 6.73228 15.4621 6.46501 15.6719 6.25523C15.8817 6.04545 16.1489 5.90259 16.4399 5.84471C16.7309 5.78683 17.0325 5.81654 17.3066 5.93007C17.5807 6.0436 17.8149 6.23586 17.9798 6.48253C18.1446 6.72921 18.2326 7.01922 18.2326 7.31589C18.2326 7.71371 18.0745 8.09524 17.7932 8.37655C17.5119 8.65785 17.1304 8.81589 16.7326 8.81589Z" fill="#53B1FD"/>
</svg>
