<svg width="24" height="24" viewBox="0 0 24 24" fill="none" xmlns="http://www.w3.org/2000/svg">
<path d="M5 12H19V17C19 18.6569 17.6569 20 16 20H8C6.34315 20 5 18.6569 5 17V12Z" fill="#36BFFA"/>
<rect x="20" y="9.2002" width="2" height="6" rx="1" fill="#026AA2"/>
<path d="M12.0002 16.3901C11.8247 16.3901 11.6522 16.344 11.5002 16.2563L2.50017 11.0591C2.02178 10.7828 1.85796 10.1709 2.13428 9.69255C2.22204 9.54062 2.34823 9.41443 2.50017 9.32667L11.5002 4.1333C11.8098 3.95557 12.1905 3.95557 12.5002 4.1333L21.5002 9.32667C21.9786 9.60299 22.1424 10.2148 21.8661 10.6932C21.7783 10.8451 21.6521 10.9713 21.5002 11.0591L12.5002 16.2563C12.3481 16.344 12.1757 16.3901 12.0002 16.3901Z" fill="#0086C9"/>
</svg>
