<svg width="24" height="24" viewBox="0 0 24 24" fill="none" xmlns="http://www.w3.org/2000/svg">
<path d="M17.6887 21.7438C17.2387 21.7438 16.8016 21.5936 16.4467 21.3168L12.4167 18.1948L9.71469 21.1778C9.59576 21.3089 9.44416 21.4061 9.27538 21.4595C9.1066 21.5128 8.92669 21.5204 8.75402 21.4814C8.58135 21.4425 8.42211 21.3584 8.29257 21.2378C8.16303 21.1172 8.06783 20.9643 8.01669 20.7948L5.99669 14.1128L2.37069 12.8528C1.97917 12.7166 1.6384 12.4643 1.39369 12.1297C1.14898 11.795 1.01192 11.3938 1.00074 10.9794C0.989563 10.565 1.10479 10.157 1.3311 9.80964C1.55741 9.46229 1.88408 9.19205 2.26769 9.03485L20.1877 1.79985C20.5296 1.6608 20.9028 1.61703 21.2676 1.67319C21.6324 1.72934 21.9752 1.88333 22.2594 2.11876C22.5437 2.35419 22.7589 2.66228 22.882 3.01024C23.0051 3.3582 23.0316 3.73302 22.9587 4.09485L19.6957 20.1098C19.5991 20.5711 19.3469 20.9851 18.9813 21.2824C18.6157 21.5797 18.1589 21.7423 17.6877 21.7428L17.6887 21.7438Z" fill="#53B1FD"/>
<path d="M8.97263 21.5059C8.75805 21.5059 8.54916 21.4368 8.37683 21.309C8.2045 21.1811 8.07786 21.0012 8.01563 20.7959L5.84763 13.6359C5.78005 13.4129 5.79254 13.1733 5.88293 12.9585C5.97332 12.7438 6.13593 12.5674 6.34263 12.4599L16.9096 6.95786C17.1215 6.84691 17.3662 6.81557 17.5992 6.86954C17.8322 6.92351 18.0382 7.05922 18.1797 7.25204C18.3212 7.44486 18.3889 7.68202 18.3706 7.9205C18.3522 8.15897 18.249 8.38298 18.0796 8.55186L10.9956 15.6349L9.95163 20.7069C9.90696 20.9247 9.79098 21.1214 9.62201 21.2659C9.45304 21.4104 9.24073 21.4945 9.01863 21.5049H8.97263V21.5059Z" fill="#175CD3"/>
</svg>
