<svg width="24" height="24" viewBox="0 0 24 24" fill="none" xmlns="http://www.w3.org/2000/svg">
<path d="M18 14C18.5523 14 19.0057 13.5509 18.9453 13.002C18.7524 11.2482 18.055 9.60624 16.9497 8.34315C15.637 6.84285 13.8565 6 12 6C10.1435 6 8.36301 6.84285 7.05025 8.34315C5.94504 9.60624 5.24757 11.2482 5.05466 13.002C4.99427 13.5509 5.44772 14 6 14L12 14H18Z" fill="#6CE9A6"/>
<circle cx="12" cy="4" r="4" fill="#12B76A"/>
<path d="M12 22V11L7.5 10L4.21693 9.27043C3.59242 9.13165 3 9.60687 3 10.2466V19.1467C3 19.6383 3.35432 20.0567 3.83911 20.1379C5.97622 20.4958 11.4919 21.4637 12 22Z" fill="#027A48"/>
<path d="M12 22V11L19.7831 9.27043C20.4076 9.13165 21 9.60687 21 10.2466V19.1467C21 19.6383 20.6457 20.0567 20.1609 20.1379C18.0238 20.4958 12.5081 21.4637 12 22Z" fill="#12B76A"/>
</svg>
