<svg width="24" height="24" viewBox="0 0 24 24" fill="none" xmlns="http://www.w3.org/2000/svg">
<path d="M21 20C21.5523 20 22.0042 19.5516 21.96 19.001C21.7765 16.7158 20.9676 14.5673 19.6569 12.9289C18.1566 11.0536 16.1217 10 14 10C11.8783 10 9.84344 11.0536 8.34315 12.9289C7.03242 14.5673 6.22348 16.7158 6.03999 19.001C5.99579 19.5515 6.44772 20 7 20L14 20H21Z" fill="#9B8AFB"/>
<circle cx="14" cy="8" r="5" fill="#7A5AF8"/>
<path d="M17 20C17.5523 20 18.0042 19.5516 17.96 19.001C17.7765 16.7158 16.9676 14.5673 15.6569 12.9289C14.1566 11.0536 12.1217 10 10 10C7.87827 10 5.84344 11.0536 4.34315 12.9289C3.03242 14.5673 2.22348 16.7158 2.03999 19.001C1.99579 19.5515 2.44772 20 3 20L10 20H17Z" fill="#5925DC"/>
<circle cx="10" cy="8" r="5" fill="#BDB4FE"/>
</svg>
